# xmcd
#
# Track frame offsets:
# 150
# 5371
# 22439
# 40591
# 42520
# 58603
# 79605
# 99316
# 107683
# 123642
# 125440
# 144512
# 146865
# 162495
# 177155
# 196629
# 197536
# 214373
# 225991
# 252099
# 277762
# 302385
# 319085
#
# Disc length: 4468 seconds
#
# Revision: 0
# Processed by: cddbd v1.4PL0 Copyright (c) Steve Scherf et al.
# Submitted via: Audion 3.0.2 (http://www.panic.com/audion/)
#
DISCID=39117217
DTITLE=Linkin Park - Reanimation
DYEAR=1900
DGENRE=
TTITLE0=Opening
TTITLE1=Pts. Of Athrty - Jay Gordon
TTITLE2=Enth E Nd - Kutmasta Kurt/Motion Man
TTITLE3=Chali
TTITLE4=Frgt/10 - Alchemist/Chali 2na
TTITLE5=P5hng Me A*wy - Mike Shinoda/Stephen Richards
TTITLE6=Plc.4 Mie Haed - Amp Live/Zion Of Zion I
TTITLE7=X-ecutioner Style - X-Ecutioners/Black Thought
TTITLE8=H! Vltg3 - Evidence/DJ Babu/Pharoahe Monch
TTITLE9=Riff Raff 
TTITLE10=Wth>You - Chairman Hahn/Aceyalone
TTITLE11=Ntr/Mssion
TTITLE12=PPr:Kut - Cheapshot/Jubacca/Rasco/Planet Asia
TTITLE13=Rnw@y - Backyard Bangers/Phoenix Orion
TTITLE14=My{Dsmbr
TTITLE15=Stef 
TTITLE16=By_Myslf - Josh Abraham/Mike Shinoda/Stephen Carpenter 
TTITLE17=Kyur4 Th Ich - Chairman Hahn
TTITLE18=1stp Klosr - The Humble Brothers/Jonathan Davis
TTITLE19=Krwlng - Mike Shinoda/Aaron Lewis
TTITLE20=?
TTITLE21=?
TTITLE22=?
EXTD=
EXTT0=
EXTT1=
EXTT2=
EXTT3=
EXTT4=
EXTT5=
EXTT6=
EXTT7=
EXTT8=
EXTT9=
EXTT10=
EXTT11=
EXTT12=
EXTT13=
EXTT14=
EXTT15=
EXTT16=
EXTT17=
EXTT18=
EXTT19=
EXTT20=
EXTT21=
EXTT22=
PLAYORDER=
